<svg width="26" height="26" viewBox="0 0 26 26" fill="none" xmlns="http://www.w3.org/2000/svg">
<path d="M12.6578 2.27939C16.0398 2.27939 16.4403 2.29422 17.7703 2.35356C19.0065 2.40794 19.674 2.61561 20.119 2.78867C20.7073 3.01611 21.1326 3.293 21.5726 3.73306C22.0176 4.17806 22.2896 4.59833 22.517 5.18672C22.6901 5.63172 22.8977 6.30417 22.9521 7.53533C23.0115 8.87033 23.0263 9.27084 23.0263 12.6479C23.0263 16.0299 23.0115 16.4304 22.9521 17.7605C22.8977 18.9966 22.6901 19.6641 22.517 20.1091C22.2896 20.6975 22.0127 21.1227 21.5726 21.5627C21.1276 22.0077 20.7073 22.2797 20.119 22.5071C19.674 22.6802 19.0015 22.8878 17.7703 22.9422C16.4353 23.0016 16.0348 23.0164 12.6578 23.0164C9.27578 23.0164 8.87528 23.0016 7.54523 22.9422C6.30911 22.8878 5.64161 22.6802 5.19661 22.5071C4.60822 22.2797 4.183 22.0028 3.74295 21.5627C3.29795 21.1177 3.026 20.6975 2.79856 20.1091C2.6255 19.6641 2.41783 18.9916 2.36345 17.7605C2.30411 16.4254 2.28928 16.0249 2.28928 12.6479C2.28928 9.26589 2.30411 8.86539 2.36345 7.53533C2.41783 6.29922 2.6255 5.63172 2.79856 5.18672C3.026 4.59833 3.30289 4.17311 3.74295 3.73306C4.18795 3.28806 4.60822 3.01611 5.19661 2.78867C5.64161 2.61561 6.31406 2.40794 7.54523 2.35356C8.87528 2.29422 9.27578 2.27939 12.6578 2.27939ZM12.6578 0C9.22139 0 8.79123 0.0148333 7.44139 0.0741667C6.0965 0.1335 5.17189 0.351056 4.37089 0.662556C3.53528 0.988889 2.82822 1.41906 2.12611 2.12611C1.41906 2.82822 0.988889 3.53528 0.662556 4.36595C0.351056 5.17189 0.1335 6.09156 0.0741667 7.43645C0.0148333 8.79122 0 9.22139 0 12.6578C0 16.0942 0.0148333 16.5243 0.0741667 17.8742C0.1335 19.2191 0.351056 20.1437 0.662556 20.9447C0.988889 21.7803 1.41906 22.4873 2.12611 23.1894C2.82822 23.8916 3.53528 24.3267 4.36595 24.6481C5.17189 24.9596 6.09156 25.1771 7.43645 25.2365C8.78628 25.2958 9.21645 25.3106 12.6528 25.3106C16.0892 25.3106 16.5194 25.2958 17.8692 25.2365C19.2141 25.1771 20.1387 24.9596 20.9397 24.6481C21.7704 24.3267 22.4775 23.8916 23.1796 23.1894C23.8817 22.4873 24.3168 21.7803 24.6382 20.9496C24.9497 20.1437 25.1672 19.224 25.2266 17.8791C25.2859 16.5293 25.3007 16.0991 25.3007 12.6627C25.3007 9.22634 25.2859 8.79617 25.2266 7.44634C25.1672 6.10145 24.9497 5.17683 24.6382 4.37583C24.3267 3.53528 23.8965 2.82822 23.1895 2.12611C22.4873 1.424 21.7803 0.988889 20.9496 0.6675C20.1437 0.356 19.224 0.138444 17.8791 0.0791111C16.5243 0.0148333 16.0942 0 12.6578 0Z" fill="white"/>
<path d="M12.6578 6.15576C9.06816 6.15576 6.15588 9.06804 6.15588 12.6577C6.15588 16.2474 9.06816 19.1597 12.6578 19.1597C16.2475 19.1597 19.1598 16.2474 19.1598 12.6577C19.1598 9.06804 16.2475 6.15576 12.6578 6.15576ZM12.6578 16.8753C10.329 16.8753 8.44022 14.9865 8.44022 12.6577C8.44022 10.3289 10.329 8.4401 12.6578 8.4401C14.9867 8.4401 16.8754 10.3289 16.8754 12.6577C16.8754 14.9865 14.9867 16.8753 12.6578 16.8753Z" fill="white"/>
<path d="M20.9348 5.89856C20.9348 6.73912 20.2525 7.41651 19.4169 7.41651C18.5763 7.41651 17.8989 6.73417 17.8989 5.89856C17.8989 5.05801 18.5813 4.38062 19.4169 4.38062C20.2525 4.38062 20.9348 5.06295 20.9348 5.89856Z" fill="white"/>
</svg>
