<svg width="23" height="18" viewBox="0 0 23 18" fill="none" xmlns="http://www.w3.org/2000/svg">
<path d="M4.43462 17.5522V16.3836C4.44148 16.2853 4.4273 16.1867 4.39303 16.0943C4.35876 16.0019 4.30519 15.9179 4.23589 15.8479C4.1666 15.7778 4.08316 15.7234 3.99116 15.6881C3.89915 15.6529 3.80069 15.6377 3.70234 15.6435C3.57362 15.6351 3.44501 15.6614 3.32991 15.7196C3.21481 15.7779 3.11744 15.8659 3.04795 15.9746C2.98461 15.8692 2.89402 15.7828 2.78571 15.7245C2.6774 15.6662 2.55538 15.6382 2.4325 15.6435C2.32539 15.6381 2.21873 15.6608 2.12308 15.7093C2.02744 15.7578 1.94612 15.8305 1.88717 15.9201V15.6903H1.48206V17.5522H1.89105V16.5199C1.88221 16.4562 1.88758 16.3913 1.90678 16.33C1.92599 16.2686 1.95854 16.2122 2.00212 16.1649C2.04569 16.1177 2.09919 16.0806 2.15879 16.0564C2.21838 16.0323 2.28259 16.0216 2.3468 16.0252C2.61556 16.0252 2.75192 16.2005 2.75192 16.516V17.5522H3.16091V16.5199C3.15273 16.4563 3.15857 16.3917 3.17802 16.3306C3.19747 16.2696 3.23005 16.2135 3.27348 16.1663C3.31692 16.1192 3.37015 16.0821 3.42943 16.0578C3.48872 16.0334 3.55262 16.0223 3.61665 16.0252C3.89319 16.0252 4.02563 16.2005 4.02563 16.516V17.5522H4.43462ZM10.4878 15.6903H9.8256V15.1254H9.41661V15.6903H9.03875V16.0603H9.41661V16.9094C9.41661 17.3418 9.5841 17.5989 10.0632 17.5989C10.2422 17.5994 10.4177 17.5495 10.5696 17.4548L10.4527 17.1081C10.3441 17.1729 10.2208 17.2091 10.0944 17.2133C9.89181 17.2133 9.8256 17.0886 9.8256 16.9017V16.0603H10.4878V15.6903ZM13.9428 15.6435C13.8441 15.6406 13.7463 15.6644 13.66 15.7124C13.5736 15.7604 13.5017 15.8308 13.452 15.9162V15.6903H13.0508V17.5522H13.4559V16.5082C13.4559 16.2005 13.5884 16.0291 13.8533 16.0291C13.9399 16.0279 14.0259 16.0438 14.1064 16.0759L14.2311 15.6941C14.1386 15.661 14.0411 15.6439 13.9428 15.6435ZM8.71937 15.8382C8.49006 15.7019 8.22641 15.6343 7.95979 15.6435C7.48847 15.6435 7.18466 15.8694 7.18466 16.2394C7.18466 16.5433 7.41057 16.7303 7.82734 16.7887L8.01821 16.8159C8.24023 16.8471 8.34542 16.9055 8.34542 17.0107C8.34542 17.1548 8.19737 17.2366 7.92084 17.2366C7.69838 17.243 7.48024 17.1744 7.30149 17.0419L7.11064 17.3574C7.3466 17.5222 7.62924 17.6068 7.91694 17.5989C8.45448 17.5989 8.76607 17.3457 8.76607 16.9912C8.76607 16.664 8.5207 16.4926 8.1156 16.4342L7.92475 16.4069C7.74944 16.3836 7.60923 16.3485 7.60923 16.2239C7.60923 16.0876 7.74163 16.0057 7.96369 16.0057C8.16757 16.0088 8.36732 16.0638 8.54408 16.1654L8.71937 15.8382ZM19.5714 15.6435C19.4726 15.6406 19.3749 15.6644 19.2885 15.7124C19.2021 15.7604 19.1303 15.8308 19.0806 15.9162V15.6903H18.6794V17.5522H19.0845V16.5082C19.0845 16.2005 19.2169 16.0291 19.4818 16.0291C19.5684 16.0279 19.6545 16.0438 19.735 16.0759L19.8597 15.6941C19.7671 15.661 19.6697 15.6439 19.5714 15.6435ZM14.3518 16.6212C14.3464 16.7523 14.3686 16.8832 14.4168 17.0053C14.465 17.1274 14.5382 17.238 14.6318 17.3301C14.7254 17.4222 14.8372 17.4937 14.96 17.54C15.0829 17.5863 15.214 17.6064 15.3451 17.5989C15.5883 17.6111 15.8273 17.5319 16.0151 17.3768L15.8203 17.0496C15.6803 17.1564 15.5095 17.2151 15.3334 17.2171C15.1816 17.2079 15.039 17.1411 14.9348 17.0304C14.8306 16.9196 14.7725 16.7733 14.7725 16.6212C14.7725 16.4691 14.8306 16.3227 14.9348 16.212C15.039 16.1012 15.1816 16.0344 15.3334 16.0252C15.5095 16.0272 15.6803 16.086 15.8203 16.1927L16.0151 15.8655C15.8273 15.7105 15.5883 15.6313 15.3451 15.6435C15.2141 15.636 15.0829 15.6561 14.96 15.7024C14.8372 15.7487 14.7254 15.8202 14.6318 15.9122C14.5383 16.0043 14.465 16.115 14.4168 16.2371C14.3686 16.3592 14.3464 16.49 14.3518 16.6212ZM18.1457 16.6212V15.6903H17.7406V15.9162C17.6715 15.8271 17.582 15.7558 17.4797 15.7084C17.3774 15.6609 17.2652 15.6387 17.1525 15.6435C16.9015 15.6558 16.6648 15.7642 16.4915 15.9462C16.3182 16.1282 16.2215 16.3699 16.2215 16.6212C16.2215 16.8725 16.3182 17.1142 16.4915 17.2962C16.6648 17.4782 16.9015 17.5866 17.1525 17.5989C17.2652 17.6037 17.3774 17.5815 17.4797 17.534C17.582 17.4866 17.6715 17.4153 17.7406 17.3262V17.5522H18.1457V16.6212ZM16.6383 16.6212C16.6446 16.5113 16.6829 16.4057 16.7485 16.3173C16.8141 16.2289 16.9041 16.1617 17.0075 16.1239C17.1108 16.0861 17.223 16.0793 17.3301 16.1045C17.4372 16.1297 17.5347 16.1857 17.6104 16.2655C17.6861 16.3454 17.7367 16.4457 17.7561 16.554C17.7755 16.6624 17.7628 16.774 17.7195 16.8752C17.6762 16.9763 17.6042 17.0626 17.5125 17.1234C17.4207 17.1842 17.3132 17.2168 17.2031 17.2171C17.126 17.2182 17.0495 17.2032 16.9784 17.1732C16.9073 17.1433 16.8432 17.0989 16.7902 17.0429C16.7371 16.9869 16.6962 16.9205 16.6701 16.8479C16.6439 16.7753 16.6331 16.6981 16.6383 16.6212ZM11.7498 15.6435C11.4972 15.6568 11.2596 15.7674 11.0867 15.9521C10.9139 16.1369 10.8193 16.3814 10.8228 16.6343C10.8264 16.8873 10.9277 17.129 11.1056 17.3089C11.2836 17.4887 11.5242 17.5927 11.7771 17.5989C12.055 17.6087 12.3268 17.5157 12.5406 17.3379L12.3419 17.038C12.1881 17.1613 11.9976 17.2298 11.8005 17.2327C11.6666 17.244 11.5336 17.2027 11.4297 17.1176C11.3257 17.0326 11.2589 16.9104 11.2435 16.777H12.6263C12.6302 16.7264 12.634 16.6757 12.634 16.6212C12.6302 16.0408 12.2718 15.6435 11.7498 15.6435ZM11.742 16.0057C11.8644 16.0034 11.9827 16.0496 12.0711 16.1343C12.1594 16.219 12.2106 16.3352 12.2134 16.4576H11.2473C11.2545 16.3326 11.3102 16.2153 11.4026 16.1309C11.4951 16.0465 11.6169 16.0015 11.742 16.0057ZM21.9046 16.6212V14.9424H21.4995V15.9162C21.4304 15.8271 21.3409 15.7558 21.2386 15.7084C21.1362 15.6609 21.024 15.6387 20.9114 15.6435C20.6603 15.6558 20.4237 15.7642 20.2503 15.9462C20.077 16.1282 19.9804 16.3699 19.9804 16.6212C19.9804 16.8725 20.077 17.1142 20.2503 17.2962C20.4237 17.4782 20.6603 17.5866 20.9114 17.5989C21.024 17.6037 21.1362 17.5815 21.2386 17.534C21.3409 17.4866 21.4304 17.4153 21.4995 17.3262V17.5522H21.9046V16.6212ZM22.5799 17.2823C22.6051 17.2821 22.63 17.2871 22.6532 17.2968C22.6755 17.3062 22.6958 17.3196 22.7131 17.3365C22.7302 17.3534 22.7439 17.3734 22.7534 17.3955C22.7631 17.4182 22.7682 17.4426 22.7682 17.4673C22.7682 17.492 22.7631 17.5164 22.7534 17.5391C22.7438 17.561 22.7301 17.581 22.7131 17.5978C22.6958 17.6147 22.6755 17.6282 22.6532 17.6377C22.63 17.6476 22.6051 17.6526 22.5799 17.6525C22.5428 17.6528 22.5065 17.6423 22.4754 17.6221C22.4443 17.6019 22.4198 17.5731 22.4051 17.5391C22.3954 17.5164 22.3903 17.492 22.3903 17.4673C22.3903 17.4426 22.3954 17.4182 22.4051 17.3955C22.4146 17.3734 22.4282 17.3534 22.4452 17.3365C22.4625 17.3195 22.4829 17.306 22.5053 17.2968C22.529 17.2871 22.5543 17.2821 22.5799 17.2823ZM22.5799 17.6116C22.5991 17.6118 22.6181 17.6079 22.6357 17.6003C22.6526 17.5929 22.668 17.5825 22.6811 17.5694C22.708 17.5423 22.723 17.5056 22.723 17.4674C22.723 17.4291 22.708 17.3925 22.6811 17.3653C22.668 17.3523 22.6527 17.3419 22.6357 17.3347C22.6181 17.3272 22.5991 17.3234 22.5799 17.3236C22.5604 17.3234 22.541 17.3272 22.523 17.3347C22.5058 17.3418 22.4902 17.3522 22.477 17.3653C22.4501 17.3925 22.435 17.4291 22.435 17.4674C22.435 17.5056 22.4501 17.5423 22.477 17.5694C22.4902 17.5826 22.5058 17.5931 22.523 17.6003C22.541 17.6079 22.5604 17.6118 22.5799 17.6116ZM22.5908 17.3807C22.609 17.3795 22.6271 17.3848 22.6419 17.3955C22.6477 17.4003 22.6524 17.4065 22.6555 17.4135C22.6586 17.4204 22.6601 17.428 22.6598 17.4356C22.66 17.4422 22.6588 17.4487 22.6563 17.4547C22.6539 17.4608 22.6502 17.4662 22.6455 17.4708C22.6342 17.4808 22.6199 17.4868 22.6049 17.4878L22.6611 17.5526H22.6171L22.565 17.4882H22.5482V17.5526H22.5114V17.3807H22.5908ZM22.5482 17.413V17.4588H22.5904C22.5985 17.4592 22.6065 17.4572 22.6135 17.4531C22.6164 17.4512 22.6186 17.4486 22.6201 17.4455C22.6217 17.4424 22.6223 17.439 22.6221 17.4356C22.6223 17.4323 22.6216 17.429 22.6201 17.426C22.6186 17.423 22.6163 17.4204 22.6135 17.4186C22.6065 17.4145 22.5985 17.4126 22.5904 17.413H22.5482ZM20.3972 16.6212C20.4035 16.5113 20.4418 16.4057 20.5074 16.3173C20.573 16.229 20.663 16.1617 20.7664 16.1239C20.8697 16.0861 20.9819 16.0794 21.089 16.1046C21.1961 16.1298 21.2935 16.1857 21.3692 16.2656C21.4449 16.3455 21.4956 16.4458 21.515 16.5541C21.5344 16.6624 21.5216 16.774 21.4783 16.8752C21.435 16.9764 21.363 17.0627 21.2713 17.1234C21.1795 17.1842 21.072 17.2168 20.962 17.2171C20.8848 17.2182 20.8083 17.2032 20.7373 17.1732C20.6662 17.1432 20.6021 17.0988 20.549 17.0429C20.496 16.9869 20.4551 16.9205 20.429 16.8479C20.4028 16.7753 20.392 16.6981 20.3972 16.6212ZM6.71723 16.6212V15.6903H6.31211V15.9162C6.24296 15.8271 6.15348 15.7558 6.05115 15.7084C5.94882 15.6609 5.83662 15.6387 5.72393 15.6435C5.47292 15.6558 5.23625 15.7642 5.06295 15.9462C4.88965 16.1282 4.79299 16.3699 4.79299 16.6212C4.79299 16.8725 4.88965 17.1142 5.06295 17.2962C5.23625 17.4782 5.47292 17.5866 5.72393 17.5989C5.83662 17.6037 5.94882 17.5815 6.05115 17.534C6.15348 17.4866 6.24296 17.4153 6.31211 17.3262V17.5522H6.71723V16.6212ZM5.20979 16.6212C5.21608 16.5113 5.25439 16.4057 5.32 16.3173C5.3856 16.229 5.47562 16.1617 5.57897 16.1239C5.68232 16.0861 5.79447 16.0794 5.9016 16.1046C6.00872 16.1298 6.10614 16.1857 6.18184 16.2656C6.25753 16.3455 6.30819 16.4458 6.32758 16.5541C6.34696 16.6624 6.33421 16.774 6.29091 16.8752C6.24761 16.9764 6.17565 17.0627 6.0839 17.1234C5.99215 17.1842 5.88462 17.2168 5.77458 17.2171C5.69744 17.2182 5.62093 17.2032 5.54986 17.1732C5.47879 17.1432 5.41471 17.0988 5.36165 17.0429C5.30859 16.9869 5.2677 16.9205 5.24156 16.8479C5.21543 16.7753 5.20461 16.6981 5.20979 16.6212Z" fill="white"/>
<path d="M14.7226 1.49976H8.58679V12.5259H14.7226V1.49976Z" fill="#FF5F00"/>
<path d="M8.97507 7.01355C8.9741 5.95165 9.21474 4.90345 9.67876 3.9483C10.1428 2.99314 10.818 2.15607 11.6534 1.50046C10.6189 0.687347 9.37655 0.181686 8.06829 0.0412695C6.76003 -0.0991471 5.43866 0.131348 4.2552 0.706409C3.07175 1.28147 2.07396 2.17789 1.37588 3.29322C0.677811 4.40855 0.307617 5.69778 0.307617 7.01355C0.307617 8.32932 0.677811 9.61856 1.37588 10.7339C2.07396 11.8492 3.07175 12.7456 4.2552 13.3207C5.43866 13.8958 6.76003 14.1263 8.06829 13.9858C9.37655 13.8454 10.6189 13.3398 11.6534 12.5266C10.818 11.871 10.1428 11.034 9.67876 10.0788C9.21474 9.12366 8.97411 8.07545 8.97507 7.01355Z" fill="#EB001B"/>
<path d="M23.0001 7.01233C23.0001 8.32808 22.63 9.61731 21.9319 10.7326C21.2339 11.848 20.2361 12.7444 19.0527 13.3195C17.8693 13.8945 16.5479 14.125 15.2397 13.9846C13.9314 13.8442 12.6891 13.3385 11.6547 12.5254C12.4893 11.8691 13.164 11.0319 13.6279 10.0769C14.0919 9.12194 14.3329 8.07406 14.3329 7.01233C14.3329 5.95059 14.0919 4.90272 13.6279 3.94772C13.164 2.99272 12.4893 2.15551 11.6547 1.49924C12.6891 0.686124 13.9314 0.180462 15.2397 0.0400476C16.5479 -0.100367 17.8693 0.130132 19.0527 0.705199C20.2361 1.28027 21.2339 2.17669 21.9319 3.29202C22.63 4.40735 23.0001 5.69657 23.0001 7.01233Z" fill="#F79E1B"/>
<path d="M22.3311 11.3588V11.1331H22.4221V11.0871H22.1903V11.1331H22.2814V11.3588H22.3311ZM22.7812 11.3588V11.0867H22.7101L22.6284 11.2739L22.5466 11.0867H22.4755V11.3588H22.5257V11.1535L22.6023 11.3305H22.6544L22.731 11.1531V11.3588H22.7812Z" fill="#F79E1B"/>
</svg>
