<svg width="30" height="11" viewBox="0 0 30 11" fill="none" xmlns="http://www.w3.org/2000/svg">
<rect width="30" height="11" rx="5.5" fill="#FFC064"/>
<path d="M10.9581 8L10.9503 5L9.34693 7.47143H8.77873L7.1831 5.06429V8H6V3H7.043L9.08228 6.10714L11.0904 3H12.1257L12.1412 8H10.9581Z" fill="white"/>
<path d="M17.0221 6.92857H14.4925L14.0099 8H12.7178L15.1463 3H16.3916L18.8279 8H17.5047L17.0221 6.92857ZM16.6252 6.05L15.7612 4.13571L14.8972 6.05H16.6252Z" fill="white"/>
<path d="M22.5445 8L21.2291 6.26429L19.937 8H18.4892L20.5052 5.45714L18.5904 3H20.0226L21.2758 4.62143L22.5056 3H23.8677L21.9685 5.41429L24 8H22.5445Z" fill="white"/>
</svg>
