<svg width="46" height="12" viewBox="0 0 46 12" fill="none" xmlns="http://www.w3.org/2000/svg">
<rect width="46" height="12" rx="6" fill="#FF88EB"/>
<path d="M10.9704 8.89888L10.9626 5.35955L9.35524 8.27528H8.78563L7.18604 5.43539V8.89888H6V3H7.04559L9.08995 6.66573L11.1031 3H12.1409L12.1565 8.89888H10.9704Z" fill="white"/>
<path d="M17.6815 7.80337V8.89888H13.4524V3H17.5801V4.09551H14.7086V5.3764H17.2446V6.4382H14.7086V7.80337H17.6815Z" fill="white"/>
<path d="M18.6873 3H21.1686C21.7617 3 22.2845 3.1236 22.737 3.37079C23.1948 3.61236 23.5485 3.95506 23.7982 4.39888C24.0531 4.8427 24.1806 5.35955 24.1806 5.94944C24.1806 6.53933 24.0531 7.05618 23.7982 7.5C23.5485 7.94382 23.1948 8.28933 22.737 8.53652C22.2845 8.77809 21.7617 8.89888 21.1686 8.89888H18.6873V3ZM21.1062 7.77809C21.6524 7.77809 22.0868 7.61517 22.4093 7.28933C22.737 6.95787 22.9009 6.51124 22.9009 5.94944C22.9009 5.38764 22.737 4.94382 22.4093 4.61798C22.0868 4.28652 21.6524 4.12079 21.1062 4.12079H19.9514V7.77809H21.1062Z" fill="white"/>
<path d="M25.1338 3H26.3979V8.89888H25.1338V3Z" fill="white"/>
<path d="M30.1209 9C29.3406 9 28.732 8.76685 28.295 8.30056C27.8632 7.83427 27.6474 7.16854 27.6474 6.30337V3H28.9114V6.25281C28.9114 7.30899 29.3172 7.83708 30.1287 7.83708C30.524 7.83708 30.8257 7.71067 31.0338 7.45787C31.2419 7.19944 31.3459 6.79775 31.3459 6.25281V3H32.5944V6.30337C32.5944 7.16854 32.3759 7.83427 31.9389 8.30056C31.5072 8.76685 30.9012 9 30.1209 9Z" fill="white"/>
<path d="M38.814 8.89888L38.8062 5.35955L37.1988 8.27528H36.6292L35.0296 5.43539V8.89888H33.8435V3H34.8891L36.9335 6.66573L38.9466 3H39.9844L40 8.89888H38.814Z" fill="white"/>
</svg>
