<svg width="26" height="26" viewBox="0 0 26 26" fill="none" xmlns="http://www.w3.org/2000/svg">
<path fill-rule="evenodd" clip-rule="evenodd" d="M25.3156 12.6578C25.3156 19.6485 19.6485 25.3156 12.6578 25.3156C5.66708 25.3156 0 19.6485 0 12.6578C0 5.66708 5.66708 0 12.6578 0C19.6485 0 25.3156 5.66708 25.3156 12.6578ZM13.1114 9.34467C11.8802 9.85675 9.41964 10.9166 5.72964 12.5243C5.13044 12.7626 4.81656 12.9957 4.78798 13.2236C4.73969 13.6088 5.22209 13.7605 5.87898 13.9671C5.96834 13.9952 6.06092 14.0243 6.15584 14.0551C6.80212 14.2652 7.67149 14.511 8.12344 14.5208C8.53339 14.5296 8.99096 14.3606 9.49612 14.0137C12.9438 11.6864 14.7235 10.5101 14.8352 10.4848C14.9141 10.4669 15.0233 10.4444 15.0973 10.5101C15.1713 10.5759 15.1641 10.7005 15.1562 10.7339C15.1084 10.9377 13.2148 12.6981 12.2349 13.6091C11.9294 13.8931 11.7127 14.0946 11.6684 14.1406C11.5692 14.2437 11.4681 14.3412 11.3709 14.4349C10.7705 15.0137 10.3202 15.4477 11.3958 16.1565C11.9127 16.4971 12.3263 16.7788 12.7389 17.0598C13.1896 17.3667 13.6391 17.6728 14.2206 18.054C14.3688 18.1511 14.5103 18.252 14.6481 18.3503C15.1725 18.7241 15.6437 19.06 16.2258 19.0065C16.564 18.9753 16.9134 18.6573 17.0908 17.7087C17.5102 15.467 18.3344 10.6099 18.5249 8.60845C18.5416 8.4331 18.5206 8.20867 18.5037 8.11016C18.4869 8.01164 18.4516 7.87128 18.3236 7.76737C18.1719 7.64431 17.9378 7.61836 17.8331 7.62021C17.357 7.62859 16.6266 7.88257 13.1114 9.34467Z" fill="#3C2C3E"/>
</svg>
