<svg width="37" height="26" viewBox="0 0 37 26" fill="none" xmlns="http://www.w3.org/2000/svg">
<path d="M0 26V22.0644C0 21.0875 0.251131 20.2013 0.753394 19.4058C1.25566 18.6103 1.95324 18.0172 2.84615 17.6264C4.88311 16.7332 6.71776 16.0913 8.35011 15.7005C9.98247 15.3097 11.6637 15.1143 13.3937 15.1143C15.1237 15.1143 16.7979 15.3097 18.4163 15.7005C20.0347 16.0913 21.8624 16.7332 23.8993 17.6264C24.7922 18.0172 25.4968 18.6103 26.013 19.4058C26.5292 20.2013 26.7873 21.0875 26.7873 22.0644V26H0ZM29.2986 26V22.0644C29.2986 20.306 28.8522 18.8615 27.9593 17.7311C27.0664 16.6006 25.8944 15.6865 24.4434 14.9887C26.3688 15.212 28.1825 15.54 29.8846 15.9726C31.5867 16.4053 32.9679 16.9007 34.0283 17.4589C34.9491 17.9893 35.6746 18.6452 36.2048 19.4267C36.7349 20.2083 37 21.0875 37 22.0644V26H29.2986ZM13.3937 12.5604C11.552 12.5604 10.0452 11.9742 8.8733 10.8019C7.70136 9.62963 7.11539 8.12238 7.11539 6.28019C7.11539 4.438 7.70136 2.93076 8.8733 1.75845C10.0452 0.586152 11.552 0 13.3937 0C15.2353 0 16.7421 0.586152 17.914 1.75845C19.086 2.93076 19.6719 4.438 19.6719 6.28019C19.6719 8.12238 19.086 9.62963 17.914 10.8019C16.7421 11.9742 15.2353 12.5604 13.3937 12.5604V12.5604ZM28.4615 6.28019C28.4615 8.12238 27.8756 9.62963 26.7036 10.8019C25.5317 11.9742 24.0249 12.5604 22.1833 12.5604C21.8763 12.5604 21.5345 12.5395 21.1578 12.4976C20.7811 12.4557 20.4393 12.379 20.1324 12.2673C20.802 11.5695 21.3113 10.7112 21.6601 9.69243C22.0089 8.67364 22.1833 7.53623 22.1833 6.28019C22.1833 5.02416 22.0089 3.91465 21.6601 2.95169C21.3113 1.98873 20.802 1.10252 20.1324 0.293076C20.4393 0.20934 20.7811 0.13956 21.1578 0.0837362C21.5345 0.0279123 21.8763 0 22.1833 0C24.0249 0 25.5317 0.586152 26.7036 1.75845C27.8756 2.93076 28.4615 4.438 28.4615 6.28019V6.28019ZM2.51131 23.4879H24.276V22.0644C24.276 21.6178 24.1435 21.1852 23.8784 20.7665C23.6133 20.3478 23.2854 20.0548 22.8948 19.8873C20.8857 18.9941 19.1976 18.394 17.8303 18.087C16.463 17.7799 14.9842 17.6264 13.3937 17.6264C11.8032 17.6264 10.3173 17.7799 8.93609 18.087C7.55487 18.394 5.85973 18.9941 3.85068 19.8873C3.46003 20.0548 3.13914 20.3478 2.88801 20.7665C2.63688 21.1852 2.51131 21.6178 2.51131 22.0644V23.4879ZM13.3937 10.0483C14.4819 10.0483 15.3818 9.69243 16.0933 8.98068C16.8049 8.26892 17.1606 7.36876 17.1606 6.28019C17.1606 5.19163 16.8049 4.29147 16.0933 3.57971C15.3818 2.86796 14.4819 2.51208 13.3937 2.51208C12.3054 2.51208 11.4055 2.86796 10.694 3.57971C9.98247 4.29147 9.6267 5.19163 9.6267 6.28019C9.6267 7.36876 9.98247 8.26892 10.694 8.98068C11.4055 9.69243 12.3054 10.0483 13.3937 10.0483Z" fill="#FF88EB"/>
</svg>
