<svg width="326" height="113" viewBox="0 0 326 113" fill="none" xmlns="http://www.w3.org/2000/svg">
<g filter="url(#filter0_d_165_3639)">
<path fill-rule="evenodd" clip-rule="evenodd" d="M26 11C20.4772 11 16 15.4772 16 21V75C16 79.0373 18.3925 82.5158 21.8371 84.095C21.13 88.0502 17.6161 92.53 16 94C24.1236 92.8632 29.3336 89.513 30.6631 85H301C306.523 85 311 80.5229 311 75V21C311 15.4772 306.523 11 301 11H26Z" fill="white" shape-rendering="crispEdges"/>
<path d="M21.8371 84.095L22.3293 84.183L22.3974 83.8018L22.0455 83.6405L21.8371 84.095ZM16 94L15.6636 93.6301L14.4658 94.7196L16.0693 94.4952L16 94ZM30.6631 85V84.5H30.2891L30.1835 84.8587L30.6631 85ZM16.5 21C16.5 15.7533 20.7533 11.5 26 11.5V10.5C20.201 10.5 15.5 15.201 15.5 21H16.5ZM16.5 75V21H15.5V75H16.5ZM22.0455 83.6405C18.772 82.1397 16.5 78.8347 16.5 75H15.5C15.5 79.2399 18.013 82.8918 21.6287 84.5495L22.0455 83.6405ZM21.3449 84.007C21.0083 85.8896 19.9935 87.9329 18.8402 89.7069C17.6888 91.4781 16.433 92.9303 15.6636 93.6301L16.3364 94.3699C17.1832 93.5997 18.4923 92.077 19.6786 90.252C20.8631 88.4298 21.9587 86.2557 22.3293 84.183L21.3449 84.007ZM16.0693 94.4952C24.2508 93.3503 29.7272 89.9463 31.1427 85.1413L30.1835 84.8587C28.94 89.0798 23.9964 92.3761 15.9307 93.5048L16.0693 94.4952ZM301 84.5H30.6631V85.5H301V84.5ZM310.5 75C310.5 80.2467 306.247 84.5 301 84.5V85.5C306.799 85.5 311.5 80.799 311.5 75H310.5ZM310.5 21V75H311.5V21H310.5ZM301 11.5C306.247 11.5 310.5 15.7533 310.5 21H311.5C311.5 15.201 306.799 10.5 301 10.5V11.5ZM26 11.5H301V10.5H26V11.5Z" fill="#3390FD" fill-opacity="0.15"/>
</g>
<defs>
<filter id="filter0_d_165_3639" x="0.46582" y="0.5" width="325.034" height="112.22" filterUnits="userSpaceOnUse" color-interpolation-filters="sRGB">
<feFlood flood-opacity="0" result="BackgroundImageFix"/>
<feColorMatrix in="SourceAlpha" type="matrix" values="0 0 0 0 0 0 0 0 0 0 0 0 0 0 0 0 0 0 127 0" result="hardAlpha"/>
<feOffset dy="4"/>
<feGaussianBlur stdDeviation="7"/>
<feComposite in2="hardAlpha" operator="out"/>
<feColorMatrix type="matrix" values="0 0 0 0 0.521021 0 0 0 0 0.521021 0 0 0 0 0.521021 0 0 0 0.2 0"/>
<feBlend mode="normal" in2="BackgroundImageFix" result="effect1_dropShadow_165_3639"/>
<feBlend mode="normal" in="SourceGraphic" in2="effect1_dropShadow_165_3639" result="shape"/>
</filter>
</defs>
</svg>
