<svg width="326" height="136" viewBox="0 0 326 136" fill="none" xmlns="http://www.w3.org/2000/svg">
<g filter="url(#filter0_d_165_3642)">
<path fill-rule="evenodd" clip-rule="evenodd" d="M26 11C20.4772 11 16 15.4772 16 21V95C16 99.0132 18.3641 102.474 21.7755 104.067C22.984 108.453 18.0158 115.039 16 116.893C25.7084 115.52 31.2555 110.951 30.991 105H301C306.523 105 311 100.523 311 95V21C311 15.4772 306.523 11 301 11H26Z" fill="white" shape-rendering="crispEdges"/>
<path d="M21.7755 104.067L22.2576 103.934L22.1963 103.711L21.987 103.613L21.7755 104.067ZM16 116.893L15.6616 116.525L14.4778 117.613L16.07 117.388L16 116.893ZM30.991 105V104.5H30.4682L30.4914 105.022L30.991 105ZM16.5 21C16.5 15.7533 20.7533 11.5 26 11.5V10.5C20.201 10.5 15.5 15.201 15.5 21H16.5ZM16.5 95V21H15.5V95H16.5ZM21.987 103.613C18.745 102.1 16.5 98.8118 16.5 95H15.5C15.5 99.2146 17.9832 102.848 21.5641 104.52L21.987 103.613ZM21.2935 104.199C21.5644 105.183 21.4967 106.322 21.1824 107.535C20.8688 108.746 20.3178 109.998 19.6594 111.188C18.3393 113.573 16.6254 115.639 15.6616 116.525L16.3384 117.261C17.3904 116.294 19.1685 114.14 20.5343 111.672C21.219 110.435 21.8094 109.102 22.1504 107.786C22.4907 106.473 22.5909 105.144 22.2576 103.934L21.2935 104.199ZM16.07 117.388C20.9796 116.693 24.8884 115.185 27.548 113.053C30.22 110.912 31.6308 108.136 31.4905 104.978L30.4914 105.022C30.6156 107.815 29.3851 110.299 26.9226 112.273C24.4477 114.257 20.7288 115.719 15.93 116.398L16.07 117.388ZM301 104.5H30.991V105.5H301V104.5ZM310.5 95C310.5 100.247 306.247 104.5 301 104.5V105.5C306.799 105.5 311.5 100.799 311.5 95H310.5ZM310.5 21V95H311.5V21H310.5ZM301 11.5C306.247 11.5 310.5 15.7533 310.5 21H311.5C311.5 15.201 306.799 10.5 301 10.5V11.5ZM26 11.5H301V10.5H26V11.5Z" fill="#3390FD" fill-opacity="0.15"/>
</g>
<defs>
<filter id="filter0_d_165_3642" x="0.477783" y="0.5" width="325.022" height="135.113" filterUnits="userSpaceOnUse" color-interpolation-filters="sRGB">
<feFlood flood-opacity="0" result="BackgroundImageFix"/>
<feColorMatrix in="SourceAlpha" type="matrix" values="0 0 0 0 0 0 0 0 0 0 0 0 0 0 0 0 0 0 127 0" result="hardAlpha"/>
<feOffset dy="4"/>
<feGaussianBlur stdDeviation="7"/>
<feComposite in2="hardAlpha" operator="out"/>
<feColorMatrix type="matrix" values="0 0 0 0 0.521021 0 0 0 0 0.521021 0 0 0 0 0.521021 0 0 0 0.2 0"/>
<feBlend mode="normal" in2="BackgroundImageFix" result="effect1_dropShadow_165_3642"/>
<feBlend mode="normal" in="SourceGraphic" in2="effect1_dropShadow_165_3642" result="shape"/>
</filter>
</defs>
</svg>
