<svg width="69" height="69" viewBox="0 0 69 69" fill="none" xmlns="http://www.w3.org/2000/svg">
<path d="M41.2196 5.78196L41.5268 5.99104L41.8961 5.9487L49.9708 5.02278L53.7958 12.1942L53.9707 12.5221L54.3173 12.6562L61.8975 15.5889L61.9516 23.7164L61.9541 24.088L62.1987 24.3679L67.5477 30.4873L63.8186 37.709L63.6481 38.0392L63.7346 38.4007L65.6271 46.305L58.969 50.9665L58.6646 51.1796L58.5733 51.5399L56.5756 59.4183L48.5139 60.4517L48.1453 60.4989L47.897 60.7754L42.4669 66.8231L34.8484 63.9916L34.5 63.8622L34.1516 63.9916L26.5331 66.8231L21.103 60.7754L20.8547 60.4989L20.4861 60.4517L12.4244 59.4183L10.4267 51.5399L10.3354 51.1796L10.031 50.9665L3.37289 46.305L5.26537 38.4007L5.35191 38.0392L5.18139 37.709L1.45228 30.4873L6.8013 24.3679L7.04589 24.088L7.04837 23.7164L7.1025 15.5889L14.6827 12.6562L15.0293 12.5221L15.2042 12.1942L19.0292 5.02278L27.1039 5.9487L27.4732 5.99104L27.7804 5.78196L34.5 1.20956L41.2196 5.78196Z" fill="url(#paint0_linear_462_5)" stroke="url(#paint1_linear_462_5)" stroke-width="2"/>
<path d="M24.7467 30.08C25.6667 30.08 26.4507 29.752 26.9707 29.144L26.2987 28.504C25.8907 28.952 25.3867 29.168 24.8027 29.168C23.6427 29.168 22.8027 28.352 22.8027 27.2C22.8027 26.048 23.6427 25.232 24.8027 25.232C25.3867 25.232 25.8907 25.448 26.2987 25.888L26.9707 25.256C26.4507 24.648 25.6667 24.32 24.7547 24.32C23.0347 24.32 21.7547 25.528 21.7547 27.2C21.7547 28.872 23.0347 30.08 24.7467 30.08ZM31.0912 25.728H27.0912V26.576H28.5952V30H29.5952V26.576H31.0912V25.728ZM33.4085 25.68C32.7205 25.68 32.0565 25.856 31.6005 26.208L31.9925 26.936C32.3125 26.672 32.8085 26.512 33.2885 26.512C34.0005 26.512 34.3525 26.856 34.3525 27.44V27.504H33.2485C31.9525 27.504 31.4725 28.064 31.4725 28.776C31.4725 29.52 32.0885 30.056 33.0645 30.056C33.7045 30.056 34.1685 29.848 34.4085 29.48V30H35.3525V27.496C35.3525 26.264 34.6405 25.68 33.4085 25.68ZM33.2725 29.328C32.7605 29.328 32.4565 29.096 32.4565 28.736C32.4565 28.424 32.6405 28.168 33.3205 28.168H34.3525V28.664C34.1845 29.104 33.7605 29.328 33.2725 29.328ZM38.958 25.68C38.374 25.68 37.878 25.88 37.542 26.288V25.728H36.59V31.552H37.59V29.48C37.934 29.872 38.414 30.056 38.958 30.056C40.206 30.056 41.126 29.192 41.126 27.864C41.126 26.544 40.206 25.68 38.958 25.68ZM38.846 29.2C38.126 29.2 37.574 28.68 37.574 27.864C37.574 27.048 38.126 26.528 38.846 26.528C39.566 26.528 40.11 27.048 40.11 27.864C40.11 28.68 39.566 29.2 38.846 29.2ZM45.349 25.728H41.349V26.576H42.853V30H43.853V26.576H45.349V25.728ZM17.5611 46.18C16.6911 46.18 15.9161 45.965 15.2361 45.535C14.5561 45.105 14.0211 44.485 13.6311 43.675C13.2511 42.855 13.0611 41.88 13.0611 40.75C13.0611 39.62 13.2511 38.65 13.6311 37.84C14.0211 37.02 14.5561 36.395 15.2361 35.965C15.9161 35.535 16.6911 35.32 17.5611 35.32C18.4311 35.32 19.2061 35.535 19.8861 35.965C20.5661 36.395 21.0961 37.02 21.4761 37.84C21.8661 38.65 22.0611 39.62 22.0611 40.75C22.0611 41.88 21.8661 42.855 21.4761 43.675C21.0961 44.485 20.5661 45.105 19.8861 45.535C19.2061 45.965 18.4311 46.18 17.5611 46.18ZM17.5611 44.125C18.2011 44.125 18.7011 43.85 19.0611 43.3C19.4311 42.75 19.6161 41.9 19.6161 40.75C19.6161 39.6 19.4311 38.75 19.0611 38.2C18.7011 37.65 18.2011 37.375 17.5611 37.375C16.9311 37.375 16.4311 37.65 16.0611 38.2C15.7011 38.75 15.5211 39.6 15.5211 40.75C15.5211 41.9 15.7011 42.75 16.0611 43.3C16.4311 43.85 16.9311 44.125 17.5611 44.125ZM30.4267 40.48C30.9467 40.74 31.3417 41.08 31.6117 41.5C31.8917 41.92 32.0317 42.405 32.0317 42.955C32.0317 43.605 31.8467 44.175 31.4767 44.665C31.1067 45.145 30.5867 45.52 29.9167 45.79C29.2467 46.05 28.4717 46.18 27.5917 46.18C26.7117 46.18 25.9367 46.05 25.2667 45.79C24.6067 45.52 24.0917 45.145 23.7217 44.665C23.3617 44.175 23.1817 43.605 23.1817 42.955C23.1817 42.405 23.3167 41.92 23.5867 41.5C23.8667 41.08 24.2617 40.74 24.7717 40.48C24.3817 40.24 24.0817 39.94 23.8717 39.58C23.6617 39.21 23.5567 38.79 23.5567 38.32C23.5567 37.71 23.7267 37.18 24.0667 36.73C24.4067 36.28 24.8817 35.935 25.4917 35.695C26.1017 35.445 26.8017 35.32 27.5917 35.32C28.3917 35.32 29.0967 35.445 29.7067 35.695C30.3267 35.935 30.8067 36.28 31.1467 36.73C31.4867 37.18 31.6567 37.71 31.6567 38.32C31.6567 38.79 31.5517 39.21 31.3417 39.58C31.1317 39.94 30.8267 40.24 30.4267 40.48ZM27.5917 37.105C27.1017 37.105 26.7067 37.225 26.4067 37.465C26.1167 37.695 25.9717 38.015 25.9717 38.425C25.9717 38.825 26.1167 39.14 26.4067 39.37C26.6967 39.6 27.0917 39.715 27.5917 39.715C28.0917 39.715 28.4917 39.6 28.7917 39.37C29.0917 39.14 29.2417 38.825 29.2417 38.425C29.2417 38.015 29.0917 37.695 28.7917 37.465C28.4917 37.225 28.0917 37.105 27.5917 37.105ZM27.5917 44.395C28.2017 44.395 28.6817 44.26 29.0317 43.99C29.3917 43.71 29.5717 43.34 29.5717 42.88C29.5717 42.42 29.3917 42.055 29.0317 41.785C28.6817 41.515 28.2017 41.38 27.5917 41.38C26.9917 41.38 26.5167 41.515 26.1667 41.785C25.8167 42.055 25.6417 42.42 25.6417 42.88C25.6417 43.35 25.8167 43.72 26.1667 43.99C26.5167 44.26 26.9917 44.395 27.5917 44.395ZM34.6706 46.12C34.2606 46.12 33.9156 45.98 33.6356 45.7C33.3556 45.42 33.2156 45.07 33.2156 44.65C33.2156 44.22 33.3556 43.875 33.6356 43.615C33.9156 43.345 34.2606 43.21 34.6706 43.21C35.0806 43.21 35.4256 43.345 35.7056 43.615C35.9856 43.875 36.1256 44.22 36.1256 44.65C36.1256 45.07 35.9856 45.42 35.7056 45.7C35.4256 45.98 35.0806 46.12 34.6706 46.12ZM41.5259 46.18C40.6559 46.18 39.8809 45.965 39.2009 45.535C38.5209 45.105 37.9859 44.485 37.5959 43.675C37.2159 42.855 37.0259 41.88 37.0259 40.75C37.0259 39.62 37.2159 38.65 37.5959 37.84C37.9859 37.02 38.5209 36.395 39.2009 35.965C39.8809 35.535 40.6559 35.32 41.5259 35.32C42.3959 35.32 43.1709 35.535 43.8509 35.965C44.5309 36.395 45.0609 37.02 45.4409 37.84C45.8309 38.65 46.0259 39.62 46.0259 40.75C46.0259 41.88 45.8309 42.855 45.4409 43.675C45.0609 44.485 44.5309 45.105 43.8509 45.535C43.1709 45.965 42.3959 46.18 41.5259 46.18ZM41.5259 44.125C42.1659 44.125 42.6659 43.85 43.0259 43.3C43.3959 42.75 43.5809 41.9 43.5809 40.75C43.5809 39.6 43.3959 38.75 43.0259 38.2C42.6659 37.65 42.1659 37.375 41.5259 37.375C40.8959 37.375 40.3959 37.65 40.0259 38.2C39.6659 38.75 39.4859 39.6 39.4859 40.75C39.4859 41.9 39.6659 42.75 40.0259 43.3C40.3959 43.85 40.8959 44.125 41.5259 44.125ZM54.3916 40.48C54.9116 40.74 55.3066 41.08 55.5766 41.5C55.8566 41.92 55.9966 42.405 55.9966 42.955C55.9966 43.605 55.8116 44.175 55.4416 44.665C55.0716 45.145 54.5516 45.52 53.8816 45.79C53.2116 46.05 52.4366 46.18 51.5566 46.18C50.6766 46.18 49.9016 46.05 49.2316 45.79C48.5716 45.52 48.0566 45.145 47.6866 44.665C47.3266 44.175 47.1466 43.605 47.1466 42.955C47.1466 42.405 47.2816 41.92 47.5516 41.5C47.8316 41.08 48.2266 40.74 48.7366 40.48C48.3466 40.24 48.0466 39.94 47.8366 39.58C47.6266 39.21 47.5216 38.79 47.5216 38.32C47.5216 37.71 47.6916 37.18 48.0316 36.73C48.3716 36.28 48.8466 35.935 49.4566 35.695C50.0666 35.445 50.7666 35.32 51.5566 35.32C52.3566 35.32 53.0616 35.445 53.6716 35.695C54.2916 35.935 54.7716 36.28 55.1116 36.73C55.4516 37.18 55.6216 37.71 55.6216 38.32C55.6216 38.79 55.5166 39.21 55.3066 39.58C55.0966 39.94 54.7916 40.24 54.3916 40.48ZM51.5566 37.105C51.0666 37.105 50.6716 37.225 50.3716 37.465C50.0816 37.695 49.9366 38.015 49.9366 38.425C49.9366 38.825 50.0816 39.14 50.3716 39.37C50.6616 39.6 51.0566 39.715 51.5566 39.715C52.0566 39.715 52.4566 39.6 52.7566 39.37C53.0566 39.14 53.2066 38.825 53.2066 38.425C53.2066 38.015 53.0566 37.695 52.7566 37.465C52.4566 37.225 52.0566 37.105 51.5566 37.105ZM51.5566 44.395C52.1666 44.395 52.6466 44.26 52.9966 43.99C53.3566 43.71 53.5366 43.34 53.5366 42.88C53.5366 42.42 53.3566 42.055 52.9966 41.785C52.6466 41.515 52.1666 41.38 51.5566 41.38C50.9566 41.38 50.4816 41.515 50.1316 41.785C49.7816 42.055 49.6066 42.42 49.6066 42.88C49.6066 43.35 49.7816 43.72 50.1316 43.99C50.4816 44.26 50.9566 44.395 51.5566 44.395Z" fill="white"/>
<defs>
<linearGradient id="paint0_linear_462_5" x1="34.5" y1="0" x2="34.5" y2="69" gradientUnits="userSpaceOnUse">
<stop stop-color="#F79E1B"/>
<stop offset="1" stop-color="#FFD597"/>
</linearGradient>
<linearGradient id="paint1_linear_462_5" x1="34.5" y1="0" x2="34.5" y2="69" gradientUnits="userSpaceOnUse">
<stop stop-color="#FFD18C"/>
<stop offset="1" stop-color="#FFCD84"/>
</linearGradient>
</defs>
</svg>
