<svg width="26" height="26" viewBox="0 0 26 26" fill="none" xmlns="http://www.w3.org/2000/svg">
<path fill-rule="evenodd" clip-rule="evenodd" d="M25.6163 12.6578C25.6163 19.6485 19.9493 25.3156 12.9586 25.3156C5.96786 25.3156 0.300781 19.6485 0.300781 12.6578C0.300781 5.66708 5.96786 0 12.9586 0C19.9493 0 25.6163 5.66708 25.6163 12.6578ZM13.4122 9.34467C12.181 9.85675 9.72042 10.9166 6.03042 12.5243C5.43123 12.7626 5.11734 12.9957 5.08876 13.2236C5.04047 13.6088 5.52287 13.7605 6.17977 13.9671C6.26912 13.9952 6.3617 14.0243 6.45662 14.0551C7.1029 14.2652 7.97227 14.511 8.42422 14.5208C8.83418 14.5296 9.29174 14.3606 9.7969 14.0137C13.2446 11.6864 15.0243 10.5101 15.136 10.4848C15.2149 10.4669 15.3241 10.4444 15.3981 10.5101C15.4721 10.5759 15.4648 10.7005 15.457 10.7339C15.4092 10.9377 13.5156 12.6981 12.5357 13.6091C12.2302 13.8931 12.0135 14.0946 11.9692 14.1406C11.87 14.2437 11.7689 14.3412 11.6717 14.4349C11.0713 15.0137 10.621 15.4477 11.6966 16.1565C12.2135 16.4971 12.6271 16.7788 13.0397 17.0598C13.4904 17.3667 13.9398 17.6728 14.5214 18.054C14.6696 18.1511 14.8111 18.252 14.9489 18.3503C15.4733 18.7241 15.9445 19.06 16.5266 19.0065C16.8648 18.9753 17.2142 18.6573 17.3916 17.7087C17.8109 15.467 18.6352 10.6099 18.8257 8.60845C18.8424 8.4331 18.8214 8.20867 18.8045 8.11016C18.7876 8.01164 18.7524 7.87128 18.6244 7.76737C18.4727 7.64431 18.2386 7.61836 18.1339 7.62021C17.6578 7.62859 16.9274 7.88257 13.4122 9.34467Z" fill="white"/>
</svg>
