<svg width="78" height="12" viewBox="0 0 78 12" fill="none" xmlns="http://www.w3.org/2000/svg">
<path d="M10.52 0.799999L7.064 8.8L3.656 0.799999H0.856L5.688 12H8.248L13.096 0.799999H10.52ZM18.0471 9.92V7.328H23.2471V5.312H18.0471V2.88H23.9351V0.799999H15.4711V12H24.1431V9.92H18.0471ZM37.5655 12L35.0535 8.4C36.5095 7.776 37.3575 6.544 37.3575 4.864C37.3575 2.352 35.4855 0.799999 32.4935 0.799999H27.6455V12H30.2375V8.88H32.4935H32.6215L34.7815 12H37.5655ZM34.7335 4.864C34.7335 6.08 33.9335 6.816 32.3495 6.816H30.2375V2.912H32.3495C33.9335 2.912 34.7335 3.632 34.7335 4.864ZM48.5631 0.799999V7.6L42.9951 0.799999H40.8511V12H43.4111V5.2L48.9951 12H51.1231V0.799999H48.5631ZM57.789 9.92V7.328H62.989V5.312H57.789V2.88H63.677V0.799999H55.213V12H63.885V9.92H57.789ZM77.3074 12L74.7954 8.4C76.2514 7.776 77.0994 6.544 77.0994 4.864C77.0994 2.352 75.2274 0.799999 72.2354 0.799999H67.3874V12H69.9794V8.88H72.2354H72.3634L74.5234 12H77.3074ZM74.4754 4.864C74.4754 6.08 73.6754 6.816 72.0914 6.816H69.9794V2.912H72.0914C73.6754 2.912 74.4754 3.632 74.4754 4.864Z" fill="white"/>
</svg>
