<svg width="38" height="13" viewBox="0 0 38 13" fill="none" xmlns="http://www.w3.org/2000/svg">
<path d="M16.4278 12.7952H13.3357L15.2683 0.917958H18.3607L16.4278 12.7952Z" fill="white"/>
<path d="M10.7342 0.917958L7.78617 9.08699L7.43742 7.32784L7.43781 7.32844L6.39708 1.98772C6.39708 1.98772 6.27149 0.917958 4.93019 0.917958H0.0570911L0 1.11887C0 1.11887 1.49072 1.42889 3.23433 2.47692L5.92091 12.7952H9.14259L14.0624 0.917958H10.7342Z" fill="white"/>
<path d="M31.6532 8.59366L33.2783 4.14882L34.1923 8.59366H31.6532ZM35.0558 12.7952H37.8951L35.4196 0.917958H32.9336C31.7854 0.917958 31.5061 1.80304 31.5061 1.80304L26.8947 12.7952H30.1174L30.7624 11.031H34.6933L35.0558 12.7952Z" fill="white"/>
<path d="M27.1366 3.77461L27.5778 1.22369C27.5778 1.22369 26.216 0.705809 24.7966 0.705809C23.2621 0.705809 19.6181 1.37695 19.6181 4.63775C19.6181 7.70643 23.895 7.74464 23.895 9.35574C23.895 10.967 20.059 10.679 18.7932 9.66264L18.333 12.3289C18.333 12.3289 19.7136 13 21.8237 13C23.9335 13 27.1174 11.907 27.1174 8.9338C27.1174 5.8459 22.8019 5.55822 22.8019 4.21581C22.8019 2.87301 25.8133 3.04539 27.1366 3.77461Z" fill="white"/>
<path d="M7.43781 7.3291L6.39708 1.98838C6.39708 1.98838 6.27149 0.918616 4.93019 0.918616H0.0570911L0 1.11953C0 1.11953 2.34241 1.60514 4.58964 3.42385C6.73712 5.16215 7.43781 7.3291 7.43781 7.3291Z" fill="white"/>
</svg>
